<?xml version="1.0" encoding="UTF-8" standalone="no"?>
<svg xmlns:dc="http://purl.org/dc/elements/1.1/" xmlns:cc="http://creativecommons.org/ns#" xmlns:rdf="http://www.w3.org/1999/02/22-rdf-syntax-ns#" xmlns:svg="http://www.w3.org/2000/svg" xmlns="http://www.w3.org/2000/svg" viewBox="0 0 157 224" height="224" width="157" id="svg2" version="1.1">
  
  <defs id="defs6"/>
  <path id="path12" d="m 61.291444,206.07811 c -0.434377,-0.70283 -0.682592,-4.86582 -0.551588,-9.25107 0.231043,-7.73402 0.182047,-7.92238 -1.633401,-6.27942 -2.539962,2.29863 -3.214107,2.13415 -3.214107,-0.78422 v -2.47797 l -4.695781,2.97797 c -5.140167,3.2598 -8.917828,3.96555 -7.911208,1.47798 2.195385,-5.42527 3.206568,-5.03849 -7.5038,-2.87024 -2.00963,0.40684 -3.38349,0.18852 -3.88118,-0.61677 -0.60764,-0.98318 -1.53675,-0.9936 -4.39793,-0.0493 -5.91788,1.95308 -6.25528,0.68028 -0.86797,-3.27437 4.96696,-3.64608 6.76643,-6.05741 5.74895,-7.70372 -0.28348,-0.45867 -2.80516,0.70694 -5.60373,2.59024 -5.50866,3.70705 -9.54051,4.56867 -8.483,1.81285 0.45386,-1.18275 0.19162,-1.4476 -0.98591,-0.99574 -0.88233,0.33859 -2.75726,0.905 -4.16651,1.2587 -2.25176,0.56515 -2.49421,0.38286 -2.00072,-1.50427 0.67989,-2.5999 0.94224,-2.58979 -4.3920105,-0.16931 -4.59087,2.08313 -11.43218,2.75804 -10.3592,1.02193 0.35191,-0.5694 -0.50929,-1 -2,-1 -3.60135,0 -2.26796,-1.77276 3.12905,-4.16011 4.6675,-2.06466 6.22725,-4.49615 1.80585002,-2.81514 -3.32765002,1.26517 -7.43490002,1.2515 -7.43490002,-0.0247 0,-0.55 -1.32344,-1 -2.9409795,-1 -5.14353,0 -4.21927,-1.67405 2.2103995,-4.00356 11.48259,-4.16021 35.7305805,-17.23185 35.7305805,-19.26168 0,-0.44282 -0.87269,-0.33808 -1.93931,0.23276 -1.20579,0.64532 -2.1612,0.67887 -2.52595,0.0887 -0.35448,-0.57357 -2.20905,-0.37677 -4.68641,0.49729 -5.04582,1.78027 -4.84833,1.78681 -4.84833,-0.1605 0,-1.13471 -0.51431,-1.39799 -1.75,-0.89585 -5.7773105,2.34769 -7.4518505,2.44698 -7.9681905,0.47247 -0.38074,-1.45592 -1.08732,-1.80556 -2.78683998,-1.37901 -1.25223,0.31429 -2.56928002,0.0982 -2.92678002,-0.48028 -0.37058,-0.59962 0.54969,-1.33319 2.14091002,-1.70654 1.53498998,-0.36015 6.12009998,-2.01811 10.18912998,-3.68434 6.5804705,-2.69465 7.2024605,-3.17266 5.6271105,-4.32459 -1.63277,-1.19391 -1.56145,-1.3477 0.91311,-1.96878 3.9568,-0.99309 16.46141,-9.53709 21.06155,-14.39067 l 4,-4.22038 -3.74573,1.53967 c -3.7981,1.5612 -11.75427,1.86375 -11.75427,0.44699 0,-0.42533 1.8,-1.96451 4,-3.4204 5.7125,-3.78035 5.19683,-5.68603 -0.75,-2.77167 -4.92512,2.41364 -8.81823,3.1188 -7.75931,1.40543 0.37681,-0.6097 -0.64841,-0.77285 -2.69098,-0.42825 -3.12784,0.52769 -3.1986,0.47482 -1.35858,-1.01506 2.28673,-1.85159 1.109,-2.00809 -3.36767,-0.44751 -2.12559,0.74098 -3.56206,0.78716 -4.2137605,0.13546 -0.6517,-0.6517 2.6979105,-2.59282 9.8257605,-5.69407 11.38251,-4.9524 18.31454,-8.94739 18.31454,-10.55482 0,-0.53423 -1.33193,-0.69442 -3,-0.36081 -4.28279,0.85656 -3.72504,-1.01931 0.92678,-3.11698 2.15973,-0.97391 5.16892,-3.06725 6.68709,-4.65188 l 2.760311,-2.88114 -3.437091,-0.005 -3.43709,-0.005 3,-2.46047 2.999999,-2.460469 -3.058969,1.112566 c -4.09771,1.490433 -10.82946,0.272988 -10.02875,-1.813645 0.42055,-1.095929 -0.0364,-1.460198 -1.66641,-1.328315 -6.35722,0.514368 -5.96058,-1.472462 0.49183,-2.463636 2.34427,-0.360109 6.0623,-1.499416 8.2623,-2.531794 l 4,-1.87705 -5.75,0.362049 c -3.1625,0.199128 -5.75,-0.0042 -5.75,-0.451789 0,-0.447611 2.99134,-2.560651 6.64742,-4.695643 3.65608,-2.134992 8.472734,-5.499363 10.703681,-7.476379 l 4.056268,-3.594574 -5.203685,0.311276 c -3.937112,0.235513 -5.203684,-0.02879 -5.203684,-1.085874 0,-0.768433 -1.0125,-1.554101 -2.25,-1.745928 -1.83019,-0.283702 -1.32737,-0.768731 2.69494,-2.599554 5.521041,-2.512995 11.555059,-6.803844 11.555059,-8.216911 0,-0.557773 -0.995767,-0.545768 -2.510866,0.03027 -2.518249,0.957437 -11.492423,0.261987 -11.485383,-0.890055 0.002,-0.337742 1.91456,-1.411442 4.249997,-2.386002 2.335439,-0.974558 5.371252,-2.652051 6.746252,-3.727763 l 2.5,-1.955838 -3.25,-0.02224 c -1.7875,-0.01223 -3.25,-0.472232 -3.25,-1.022232 0,-0.55 0.538312,-1 1.196249,-1 1.419849,0 8.803751,-4.978656 8.803751,-5.936001 0,-0.365199 -1.56,-0.663999 -3.466667,-0.663999 -3.541154,0 -5.984911,-1.332721 -3.848167,-2.098627 0.651842,-0.233649 3.126842,-1.845542 5.5,-3.581984 l 4.314834,-3.157167 -2.763368,-0.531111 -2.763369,-0.531111 3.451714,-2.743437 c 1.898443,-1.50889 3.44717,-3.5338901 3.441617,-4.5000001 -0.02103,-3.658335 2.903599,-16.6897046 3.424029,-15.2565626 0.55981,1.541587 1.720343,8.7905846 2.033268,12.7003396 0.09686,1.210187 0.738609,2.762687 1.426109,3.45 0.6875,0.687313 1.25,1.7797731 1.25,2.4276881 0,0.647915 1.0125,1.884312 2.25,2.747548 2.152665,1.501623 2.16348,1.576912 0.25,1.740393 -1.1,0.09398 -2.45,0.111066 -3,0.03797 -0.55,-0.0731 -0.126492,0.548613 0.94113,1.381579 1.067621,0.832964 1.405121,1.514482 0.75,1.514482 -2.370195,0 -1.099782,1.94133 3.371919,5.152662 3.812012,2.73758 4.264637,3.385575 2.75,3.937004 -0.997177,0.363039 -2.150549,0.464822 -2.563049,0.226185 -0.4125,-0.238637 -0.75,-0.033 -0.75,0.456973 0,0.489972 2.091099,2.040808 4.646886,3.446303 l 4.646886,2.555445 -4.198039,0.709254 c -2.471171,0.417502 -4.048439,1.183731 -3.83436,1.862714 0.200024,0.634403 3.006098,2.727968 6.235719,4.652366 4.391108,2.616479 5.384138,3.589372 3.937478,3.857609 -1.064015,0.197286 -2.478638,0.800081 -3.143611,1.339545 -0.664972,0.539464 -2.617098,0.671582 -4.338057,0.293595 -2.894328,-0.635701 -3.049099,-0.537919 -2.063502,1.303688 1.074506,2.007732 5.776182,6.316344 8.913365,8.168199 1.404855,0.829275 1.458625,1.15877 0.312135,1.912675 -1.613582,1.061054 -0.917926,1.495534 8.1351,5.080861 6.90797,2.735805 7.43667,4.380456 1.25,3.88841 -2.475,-0.196845 -4.5,-0.01716 -4.5,0.399306 0,0.416463 0.45,0.757206 1,0.757206 0.55,0 1,0.45 1,1 0,0.55 -1.09844,1 -2.44098,1 -1.34254,0 -2.74164,0.486462 -3.1091,1.081027 -0.3873,0.626667 -1.778092,0.802612 -3.309014,0.418612 l -2.640906,-0.662414 2.5,2.713733 c 1.375,1.492552 4.67611,3.735208 7.3358,4.983679 3.95795,1.857879 4.53467,2.438472 3.17693,3.198299 -1.33427,0.746696 -0.51943,1.425008 4.1642,3.466496 3.20269,1.395978 6.639092,2.819008 7.636452,3.162298 3.16965,1.09096 0.83079,2.49105 -3.8613,2.31146 -2.925282,-0.11197 -4.826312,0.31456 -5.377662,1.20657 -0.54346,0.87922 -1.98063,1.21424 -3.96161,0.92349 -3.01709,-0.44282 -3.05722,-0.39921 -1.36079,1.47832 2.47239,2.73635 9.54039,6.1322 17.997982,8.64721 3.9875,1.18575 7.25,2.56629 7.25,3.06788 0,0.50158 -3.0375,1.04869 -6.75,1.21579 -6.66911,0.3002 -6.71405,0.32103 -3.75,1.73862 l 3,1.43478 -2.8386,0.38205 c -2.6589,0.35786 -2.7222,0.47065 -1,1.78166 1.63351,1.24349 1.13752,1.38777 -4.446562,1.29351 -3.45683,-0.0584 -6.53079,0.13955 -6.83102,0.43977 -1.18217,1.18218 1.82361,4.66037 6.99205,8.09098 6.213892,4.12455 21.909132,12.0509 25.624132,12.9406 1.375,0.3293 3.362,1.22921 4.41557,1.9998 1.7944,1.31246 1.68371,1.44457 -1.75,2.08874 -2.01607,0.37822 -3.66557,1.06913 -3.66557,1.53536 0,2.07356 -3.6824,1.89588 -8.74525,-0.42197 -6.78822,-3.10775 -7.06246,-3.11556 -3.56051,-0.10142 3.67531,3.16336 2.40795,4.20581 -3.6136,2.97231 -4.13187,-0.8464 -4.78324,-0.77581 -4.30644,0.46671 0.46346,1.20775 -0.29889,1.3628 -4.356222,0.88599 -4.73856,-0.55688 -4.50327,-0.37707 6.449182,4.92837 6.37799,3.08954 15.51731,6.5591 20.82271,7.90493 5.20054,1.31922 9.94099,2.69862 10.53432,3.06532 1.54178,0.95287 -2.04727,3.36144 -5.00894,3.36144 -1.56149,0 -2.58557,0.70011 -2.9255,2 -0.64177,2.45411 -3.96124,2.60995 -10.88082,0.51082 -5.93885,-1.80161 -10.8254,-1.9937 -9.8321,-0.38651 0.93221,1.50835 11.57955,6.24048 18.54235,8.24101 10.31742,2.96437 10.64256,7.65385 0.40843,5.89064 -3.9697,-0.68393 -5.33012,-0.65847 -4.58583,0.0858 1.62401,1.62401 1.25798,2.8478 -0.69178,2.31293 -5.83826,-1.60158 -9.25,-1.70021 -9.25,-0.26741 0,2.85103 -3.85106,2.73914 -11.52821,-0.33494 -4.192602,-1.6788 -7.813912,-3.05236 -8.047352,-3.05236 -1.27736,0 -0.0793,2.75077 2.26265,5.19528 2.14238,2.23616 2.34509,2.80472 1,2.80472 -1.97255,0 -2.17401,1.11308 -0.50376,2.78333 2.02315,2.02315 0.20277,2.40483 -3.69737,0.77525 -4.64121,-1.9392 -5.48596,-1.94822 -5.48596,-0.0586 0,2.16112 -2.50476,1.85399 -8.197062,-1.00509 -4.961859,-2.4922 -4.990314,-2.49439 -5.531279,-0.42574 -0.41777,1.59756 -1.082091,1.94424 -2.867125,1.49623 -2.274491,-0.57087 -2.329475,-0.40941 -2.613948,7.67573 -0.285344,8.1099 -0.338488,8.26441 -2.94615,8.56618 -1.46056,0.16902 -3.010963,-0.26774 -3.44534,-0.97058 z" style="fill:#fff"/>
</svg>
